<?xml version="1.0" standalone="no"?>
<!DOCTYPE svg PUBLIC "-//W3C//DTD SVG 20010904//EN"
 "http://www.w3.org/TR/2001/REC-SVG-20010904/DTD/svg10.dtd">
<svg version="1.0" xmlns="http://www.w3.org/2000/svg"
 width="200.000000pt" height="200.000000pt" viewBox="0 0 200.000000 200.000000"
 preserveAspectRatio="xMidYMid meet">
<metadata>
Created by potrace 1.14, written by Peter Selinger 2001-2017
</metadata>
<g transform="translate(0.000000,200.000000) scale(0.100000,-0.100000)"
fill="#000000" stroke="none">
<path d="M760 1980 c0 -18 -7 -20 -60 -20 -53 0 -60 -2 -60 -20 0 -17 -7 -20
-40 -20 -33 0 -40 -3 -40 -20 0 -17 -7 -20 -40 -20 -33 0 -40 -3 -40 -20 0
-17 -7 -20 -40 -20 -33 0 -40 -3 -40 -20 0 -13 -7 -20 -20 -20 -13 0 -20 -7
-20 -20 0 -13 -7 -20 -20 -20 -13 0 -20 -7 -20 -20 0 -13 -7 -20 -20 -20 -13
0 -20 -7 -20 -20 0 -13 -7 -20 -20 -20 -13 0 -20 -7 -20 -20 0 -13 -7 -20 -20
-20 -17 0 -20 -7 -20 -40 0 -33 -3 -40 -20 -40 -13 0 -20 -7 -20 -20 0 -13 -7
-20 -20 -20 -17 0 -20 -7 -20 -40 0 -33 -3 -40 -20 -40 -17 0 -20 -7 -20 -40
0 -33 -3 -40 -20 -40 -18 0 -20 -7 -20 -80 0 -73 -2 -80 -20 -80 -19 0 -20 -7
-20 -200 0 -193 1 -200 20 -200 18 0 20 -7 20 -80 0 -73 2 -80 20 -80 17 0 20
-7 20 -40 0 -33 3 -40 20 -40 17 0 20 -7 20 -40 0 -33 3 -40 20 -40 13 0 20
-7 20 -20 0 -13 7 -20 20 -20 17 0 20 -7 20 -40 0 -33 3 -40 20 -40 13 0 20
-7 20 -20 0 -13 7 -20 20 -20 13 0 20 -7 20 -20 0 -13 7 -20 20 -20 13 0 20
-7 20 -20 0 -13 7 -20 20 -20 13 0 20 -7 20 -20 0 -13 7 -20 20 -20 13 0 20
-7 20 -20 0 -17 7 -20 40 -20 33 0 40 -3 40 -20 0 -17 7 -20 40 -20 33 0 40
-3 40 -20 0 -17 7 -20 40 -20 33 0 40 -3 40 -20 0 -17 7 -20 40 -20 33 0 40 3
40 20 0 13 -7 20 -20 20 -18 0 -20 7 -20 60 l0 60 -60 0 c-53 0 -60 2 -60 20
0 13 -7 20 -20 20 -13 0 -20 7 -20 20 0 13 -7 20 -20 20 -17 0 -20 7 -20 40 0
33 -3 40 -20 40 -19 0 -20 7 -20 180 l0 180 -40 0 -40 0 0 40 c0 33 -3 40 -20
40 -18 0 -20 7 -20 60 0 53 2 60 20 60 17 0 20 7 20 40 l0 40 40 0 40 0 0 140
c0 133 1 140 20 140 17 0 20 7 20 40 0 33 3 40 20 40 17 0 20 7 20 40 0 33 3
40 20 40 13 0 20 7 20 20 0 13 7 20 20 20 13 0 20 7 20 20 0 13 7 20 20 20 13
0 20 7 20 20 0 17 7 20 40 20 33 0 40 3 40 20 0 13 7 20 20 20 13 0 20 7 20
20 0 18 7 20 60 20 53 0 60 2 60 20 0 19 7 20 140 20 133 0 140 -1 140 -20 0
-18 7 -20 60 -20 53 0 60 -2 60 -20 0 -13 7 -20 20 -20 13 0 20 -7 20 -20 0
-17 7 -20 40 -20 33 0 40 -3 40 -20 0 -13 7 -20 20 -20 13 0 20 -7 20 -20 0
-13 7 -20 20 -20 13 0 20 -7 20 -20 0 -13 7 -20 20 -20 17 0 20 -7 20 -40 0
-33 3 -40 20 -40 17 0 20 -7 20 -40 0 -33 3 -40 20 -40 19 0 20 -7 20 -140 l0
-140 40 0 40 0 0 -40 c0 -33 3 -40 20 -40 18 0 20 -7 20 -60 0 -53 -2 -60 -20
-60 -17 0 -20 -7 -20 -40 l0 -40 -40 0 -40 0 0 -180 c0 -173 -1 -180 -20 -180
-17 0 -20 -7 -20 -40 0 -33 -3 -40 -20 -40 -13 0 -20 -7 -20 -20 0 -13 -7 -20
-20 -20 -13 0 -20 -7 -20 -20 0 -18 -7 -20 -60 -20 l-60 0 0 -60 c0 -53 -2
-60 -20 -60 -13 0 -20 -7 -20 -20 0 -13 7 -20 20 -20 13 0 20 7 20 20 0 18 7
20 60 20 53 0 60 2 60 20 0 13 7 20 20 20 13 0 20 7 20 20 0 17 7 20 40 20 33
0 40 3 40 20 0 13 7 20 20 20 13 0 20 7 20 20 0 13 7 20 20 20 13 0 20 7 20
20 0 13 7 20 20 20 13 0 20 7 20 20 0 13 7 20 20 20 13 0 20 7 20 20 0 13 7
20 20 20 13 0 20 7 20 20 0 13 7 20 20 20 17 0 20 7 20 40 0 33 3 40 20 40 13
0 20 7 20 20 0 13 7 20 20 20 18 0 20 7 20 60 0 53 2 60 20 60 18 0 20 7 20
60 0 53 2 60 20 60 19 0 20 7 20 240 0 233 -1 240 -20 240 -18 0 -20 7 -20 60
0 53 -2 60 -20 60 -18 0 -20 7 -20 60 0 53 -2 60 -20 60 -13 0 -20 7 -20 20 0
13 -7 20 -20 20 -17 0 -20 7 -20 40 0 33 -3 40 -20 40 -13 0 -20 7 -20 20 0
13 -7 20 -20 20 -13 0 -20 7 -20 20 0 13 -7 20 -20 20 -13 0 -20 7 -20 20 0
13 -7 20 -20 20 -13 0 -20 7 -20 20 0 13 -7 20 -20 20 -13 0 -20 7 -20 20 0
13 -7 20 -20 20 -13 0 -20 7 -20 20 0 17 -7 20 -40 20 -33 0 -40 3 -40 20 0
13 -7 20 -20 20 -13 0 -20 7 -20 20 0 18 -7 20 -60 20 -53 0 -60 2 -60 20 0
18 -7 20 -60 20 -53 0 -60 2 -60 20 0 19 -7 20 -240 20 -233 0 -240 -1 -240
-20z"/>
<path d="M840 1540 c0 -17 -7 -20 -40 -20 -33 0 -40 -3 -40 -20 0 -13 -7 -20
-20 -20 -13 0 -20 -7 -20 -20 0 -13 -7 -20 -20 -20 -17 0 -20 -7 -20 -40 0
-33 3 -40 20 -40 13 0 20 -7 20 -20 0 -18 7 -20 60 -20 53 0 60 -2 60 -20 0
-19 7 -20 180 -20 173 0 180 1 180 20 0 18 7 20 60 20 53 0 60 2 60 20 0 13 7
20 20 20 17 0 20 7 20 40 0 33 -3 40 -20 40 -13 0 -20 7 -20 20 0 13 -7 20
-20 20 -13 0 -20 7 -20 20 0 17 -7 20 -40 20 -33 0 -40 3 -40 20 0 19 -7 20
-180 20 -173 0 -180 -1 -180 -20z"/>
<path d="M560 1220 c0 -53 -2 -60 -20 -60 -18 0 -20 -7 -20 -60 l0 -60 500 0
500 0 0 60 c0 53 -2 60 -20 60 -18 0 -20 7 -20 60 l0 60 -60 0 c-53 0 -60 -2
-60 -20 0 -17 -7 -20 -40 -20 -33 0 -40 -3 -40 -20 0 -17 -7 -20 -40 -20 -33
0 -40 -3 -40 -20 0 -19 -7 -20 -180 -20 -173 0 -180 1 -180 20 0 17 -7 20 -40
20 -33 0 -40 3 -40 20 0 17 -7 20 -40 20 -33 0 -40 3 -40 20 0 18 -7 20 -60
20 l-60 0 0 -60z"/>
<path d="M440 860 l0 -60 340 0 340 0 0 -120 c0 -113 1 -120 20 -120 13 0 20
-7 20 -20 0 -17 7 -20 40 -20 l40 0 0 40 c0 33 3 40 20 40 13 0 20 7 20 20 0
13 -7 20 -20 20 -18 0 -20 7 -20 60 0 53 2 60 20 60 13 0 20 7 20 20 0 19 7
20 160 20 l160 0 0 60 0 60 -580 0 -580 0 0 -60z"/>
<path d="M560 520 c0 -153 1 -160 20 -160 13 0 20 -7 20 -20 0 -13 7 -20 20
-20 13 0 20 -7 20 -20 0 -20 7 -20 380 -20 373 0 380 0 380 20 0 13 7 20 20
20 13 0 20 7 20 20 0 13 7 20 20 20 19 0 20 7 20 160 l0 160 -60 0 -60 0 0
-100 c0 -93 -1 -100 -20 -100 -13 0 -20 -7 -20 -20 0 -17 -7 -20 -40 -20 -33
0 -40 -3 -40 -20 0 -18 -7 -20 -60 -20 -53 0 -60 2 -60 20 0 13 -7 20 -20 20
-13 0 -20 7 -20 20 0 13 -7 20 -20 20 -19 0 -20 7 -20 100 l0 100 -240 0 -240
0 0 -160z"/>
<path d="M800 80 l0 -80 220 0 220 0 0 80 0 80 -220 0 -220 0 0 -80z"/>
</g>
</svg>
