<?xml version="1.0" standalone="no"?>
<!DOCTYPE svg PUBLIC "-//W3C//DTD SVG 20010904//EN"
 "http://www.w3.org/TR/2001/REC-SVG-20010904/DTD/svg10.dtd">
<svg version="1.0" xmlns="http://www.w3.org/2000/svg"
 width="512.000000pt" height="512.000000pt" viewBox="0 0 512.000000 512.000000"
 preserveAspectRatio="xMidYMid meet">
<metadata>
Created by potrace 1.14, written by Peter Selinger 2001-2017
</metadata>
<g transform="translate(0.000000,512.000000) scale(0.100000,-0.100000)"
fill="#000000" stroke="none">
<path d="M1 3763 l0 -1218 457 -1145 458 -1145 395 -3 c310 -2 398 1 406 10 5
7 192 451 414 986 261 629 407 969 412 960 5 -7 192 -449 415 -983 l407 -970
400 0 400 0 477 1190 477 1190 1 1173 0 1173 -37 -3 -37 -3 -662 -1815 c-365
-998 -664 -1819 -666 -1823 -2 -4 -137 327 -300 736 l-296 745 400 1058 c220
583 403 1067 405 1077 5 16 -18 17 -422 15 l-428 -3 -266 -762 c-146 -419
-269 -764 -272 -767 -3 -3 -124 339 -269 760 -145 421 -269 768 -274 770 -6 2
-200 3 -432 2 l-421 -3 399 -1065 c219 -586 399 -1072 400 -1080 1 -16 -559
-1460 -572 -1473 -4 -5 -12 4 -18 20 -5 15 -299 816 -652 1778 -353 963 -649
1769 -657 1793 -8 23 -21 42 -29 42 -12 0 -14 -178 -13 -1217z"/>
</g>
</svg>
